<?xml version="1.0" encoding="utf-8"?>
<!-- Generator: Adobe Illustrator 28.2.0, SVG Export Plug-In . SVG Version: 6.00 Build 0)  -->
<svg version="1.1" id="Layer_1" xmlns="http://www.w3.org/2000/svg" xmlns:xlink="http://www.w3.org/1999/xlink" x="0px" y="0px"
	 viewBox="0 0 210 340.4" style="enable-background:new 0 0 210 340.4;" xml:space="preserve">
<style type="text/css">
	.st0{fill-rule:evenodd;clip-rule:evenodd;fill:#ffffff;}
	
		.st1{clip-path:url(#SVGID_00000083809814235423187380000011532991672742772390_);fill-rule:evenodd;clip-rule:evenodd;fill:#00C6BC;}
	
		.st2{clip-path:url(#SVGID_00000083809814235423187380000011532991672742772390_);fill-rule:evenodd;clip-rule:evenodd;fill:#ffffff;}
</style>
<g>
	<path class="st0" d="M118,94.9c-5.4-2.1-12.3-5.1-19.7-2.8c-0.6-2.1,5.2-4.5,9.9-3.9C112.6,88.7,117,91.8,118,94.9z"/>
	<path class="st0" d="M119.2,96.5c-5.5,1.9-11.8-1.8-17.8-2C106.7,91.6,114.2,95.3,119.2,96.5z"/>
	<path class="st0" d="M116.4,98.4c-4.3,2.3-12.8,0.4-18.2,0C102.2,94.8,111.6,97.9,116.4,98.4z"/>
	<path class="st0" d="M119.2,100c0.7-0.1,0.7,0.3,0.8,0.8c-3.6,4.8-13.9,3.8-20.1,2C103.6,99.4,114.7,103.5,119.2,100z"/>
	<path class="st0" d="M146.4,110.7c0.8,0.4,1.9,1.6,1.2,2.4C146.3,113.1,145.6,111.6,146.4,110.7z"/>
	<path class="st0" d="M96.3,114.2c-5.3,0.7-14.9,2-18.2-1.6C83.9,112.3,92.6,111.3,96.3,114.2z"/>
	<path class="st0" d="M103.8,128.4c4.3,16.2,8.7,32.4,11.4,50.1c-2.8-7.7-4.3-15.4-6.7-23.3C106.1,147.2,104,138.4,103.8,128.4z"/>
	<path class="st0" d="M189.1,164.3c-2.7,7.9-5.3,19.1-9.1,27.2C181.5,180.9,184.3,171.6,189.1,164.3z"/>
	<path class="st0" d="M157.5,177.8c0.3,0.1,0.4,0.4,0.8,0.4c2.9,0.2,1.5,4.3,1.6,5.9c1.4,22.9-1.1,50,1.2,72.6
		C155.5,233.6,158.4,204.5,157.5,177.8z"/>
	<path class="st0" d="M86.8,182.9c1.3-0.1,0.6,1.7,2,1.6c-0.4,7.7,1,13.4,0.8,20.9C85,201.6,85.7,190.1,86.8,182.9z"/>
	<path class="st0" d="M113.7,195.5c2.3,2.9,3.7,8.6,3.6,12.6C114.7,205.3,113.7,200.9,113.7,195.5z"/>
	<path class="st0" d="M62,255.9c-5.5-10.3-8.5-20.9-15.8-29.2c-7-8-13.9-16.1-22.1-22.9c-0.2-0.3-0.5-0.7,0-0.8
		c10.3,4.5,17.9,15.6,26.1,26.1C55.3,235.7,60.1,246.3,62,255.9z"/>
	<path class="st0" d="M167.4,203.4c0.5-0.1,0.7,0.1,0.8,0.4c0.2,10.4-1.7,22.3-3.2,32.4C163.7,224.7,166,213.6,167.4,203.4z"/>
	<path class="st0" d="M122.4,210.5c0.5-0.1,0.7,0.1,0.8,0.4c3.6,17.6,10.1,32.3,10.7,52.9C131.3,244.8,123.9,230.5,122.4,210.5z"/>
	<path class="st0" d="M67.1,290.3c4.2-0.9,10,8.3,13.8,13c3.7,4.7,7.7,9.2,11.1,13c8.4,9.6,18,14.9,24.9,23.3
		C94,329.4,82.5,307.9,67.1,290.3z"/>
	<g>
		<defs>
			<path id="SVGID_1_" d="M93.3,57.2c0,0-0.3-18.7,1.8-23.7c2.1-4.9,2.9-9,7.1-11.1c4.2-2,9.9,1.4,9.9,1.4l4.2,3.6L118,44l1.2,16.4
				l15.5-9.1l15.6-26.6L126.7,0H91.3L77.2,22.5l-1,19.9l3.3,5.6L93.3,57.2z"/>
		</defs>
		<clipPath id="SVGID_00000183214795651397964830000012858199841504238523_">
			<use xlink:href="#SVGID_1_"  style="overflow:visible;"/>
		</clipPath>
		
			<path style="clip-path:url(#SVGID_00000183214795651397964830000012858199841504238523_);fill-rule:evenodd;clip-rule:evenodd;fill:#00C6BC;" d="
			M103.6,4.1c1.8-0.3,1.5,2.6-0.4,2C103.1,5.2,103.3,4.6,103.6,4.1z"/>
		
			<path style="clip-path:url(#SVGID_00000183214795651397964830000012858199841504238523_);fill-rule:evenodd;clip-rule:evenodd;fill:#00C6BC;" d="
			M99.3,4.9c0.2,1.5-0.2,2.5-1.2,2.8c-1.4,0-1.6-1.3-1.6-2.8C97,4.4,98.7,4.4,99.3,4.9z"/>
		
			<path style="clip-path:url(#SVGID_00000183214795651397964830000012858199841504238523_);fill-rule:evenodd;clip-rule:evenodd;fill:#00C6BC;" d="
			M129.7,7.3c0.4,1.2,0.4,1.2,0,2.4c-0.9,0.1-1.5-0.1-2-0.4C127.6,7.9,128.2,7.2,129.7,7.3z"/>
		
			<path style="clip-path:url(#SVGID_00000183214795651397964830000012858199841504238523_);fill-rule:evenodd;clip-rule:evenodd;fill:#00C6BC;" d="
			M96.1,8.5c0.2,1.2-0.5,1.6-1.2,2c-1.1-0.1-1.7-0.7-1.6-2C94.4,7.7,95,7.7,96.1,8.5z"/>
		
			<path style="clip-path:url(#SVGID_00000183214795651397964830000012858199841504238523_);fill-rule:evenodd;clip-rule:evenodd;fill:#00C6BC;" d="
			M140.7,24.3c0.6,1.2-0.1,2.2-1.2,2.8c-1.4,0-1.7-1.2-1.6-2.8C138.5,23.7,140.2,23.7,140.7,24.3z"/>
		
			<path style="clip-path:url(#SVGID_00000183214795651397964830000012858199841504238523_);fill-rule:evenodd;clip-rule:evenodd;fill:#00C6BC;" d="
			M141.1,29.4c0.6,1.2,0.6,2.9-0.8,3.2c-1.4,0-1.7-1.2-1.6-2.8C139.2,29.3,140.1,29.4,141.1,29.4z"/>
		
			<path style="clip-path:url(#SVGID_00000183214795651397964830000012858199841504238523_);fill-rule:evenodd;clip-rule:evenodd;fill:#00C6BC;" d="
			M81.9,41.2c0.2,1.7-0.7,2.5-2,2.8c-0.3-0.4-0.7-0.6-1.2-0.8C78.1,41,80.5,40.3,81.9,41.2z"/>
		
			<path style="clip-path:url(#SVGID_00000183214795651397964830000012858199841504238523_);fill-rule:evenodd;clip-rule:evenodd;fill:#00C6BC;" d="
			M111.1,7.3c-9.9,1.1-20.3,9.3-22.1,18.2c-1.4,6.8-0.1,16,3.2,20.9c2.8,4.3,10.9,7.8,16.6,8.3c9.2,0.8,21.3-4.8,23.7-12.2
			c1-3,0.5-6,0.8-9.5c0.9,23.8-37.4,26.5-41.8,5.5c-3.5-16.9,8.4-26.3,23.3-25.3c6.4,0.5,12.6,3.1,15.4,7.1
			c-3.6-5.7-8-10.7-16.6-11.4c3.9-2.2,12-0.4,15.4,2c9.8,6.7,10.8,34.6,0,42.2c-2.5,1.8-5.8,1.8-9.9,2.8c-3.6,0.8-6.3,2.5-9.9,2.4
			c-6.4-0.2-15.9-4.8-18.9-8.7c-5.5-7-10.8-21.3-3.9-30C89.8,14.9,101,7.1,111.1,7.3z M87,40.5c-1.7-13.1,2.8-22,7.5-27.2
			C86.2,17.4,81.5,30.5,87,40.5z M134,23.5c-0.9-6.2-4.6-11.7-9.9-12.2C129,13.5,132.7,19,134,23.5z M103.2,31
			c-0.3-13.5,20.2-10,17.8,2c2-8.8-5.4-12.6-13-11.8c11.2-7.7,21.1,10.8,12.2,18.9c10.8-5.9,2.3-23.7-9.5-22.5
			c3.9-3.1,8.9,0.5,12.2,1.6c2.3,3.4,5,7,5.5,11.8c0.8,7.7-4,12.5-7.9,16.6c10.1-2.2,12.5-20.5,5.9-28c-5-5.8-16.3-4.7-23.7-2.4
			c-1.2,0.5-1-0.6-1.6-0.8c-7.2,3-10.6,18.8-4.7,24.5C92,29.2,99.2,15,110.7,17.2c-5.8,2.1-12,5.9-10.3,14.2
			c0.2-5.2,2.4-8.4,6.7-9.5C105.8,24.7,101.5,26.5,103.2,31z M106.4,31.4c1.5,10.9,17.2,0.1,9.5-4.7
			C121.2,33.2,108.8,37.2,106.4,31.4z M120.2,33.7c-1,4-5.5,4.5-9.5,5.5c2.1,0,4.2,0,6.3,0C118.3,38.1,120.7,34.1,120.2,33.7z
			 M111.9,46.8c0.8,0.2,3.1-0.3,1.2-0.4c-6.8-1.3-11.2-5.1-14.6-9.9C99.9,43,104.2,46.6,111.9,46.8z M115,42
			c-1.3,0.2-3.7-0.5-4.3,0.4C112,43,114.2,43,115,42z"/>
		
			<path style="clip-path:url(#SVGID_00000183214795651397964830000012858199841504238523_);fill-rule:evenodd;clip-rule:evenodd;fill:#ffffff;" d="
			M114.5,52.6c-3,2.2-10.2,1.3-15.8,2C99.8,51.3,110.1,50.2,114.5,52.6z"/>
	</g>
	<path class="st0" d="M152,72c-5,0.4-9.2,1.6-13.4,2.8c1.9-3.6,6.2-4.9,11.1-5.5c0.3-1.6-2.6-3.4-3.9-4.7c-4.4,0.5-9.8,0.8-9.1,5.1
		c-2.2-1.9-3.4-4.7-4.7-7.5c-1.4,9.9,4.4,19.1,6.3,28.4c0.8,3.8,0.8,8.3,2,12.6c1.5,5.6,3.4,9,2.8,14.6c-0.4,3.4,0.3,7.1,0,10.7
		c-0.6,9-4.1,17.3-6.3,25.7c-0.8,2.9-2.4,6.2-2.4,8.3c0,3.3,3.2,5.6,3.2,8.3c-4.3-2.1-5.6-8.4-7.1-13c-4.7-14.7-9-31.7-9.9-50.1
		c-0.2-4.7,1-9.7,0.8-14.6c-0.3-9.3-3.1-19.3-3.6-29.2c-0.5-10.4-0.6-21-2-30.8c-1.5,2.1-1.8,5.3-3.6,7.1c-4.4-0.5-8.5-0.6-12.2-0.8
		c-2-0.2,0.2-1.8,0.4-2.4c-1.5-1.3-1.2-4.3-1.2-7.1c-5.4,15.3-3.6,32.7-3.6,50.1c0,3.3-0.6,5.9-0.4,8.7c0.8,10.1,6.8,16.8,6.3,29.2
		c-0.1,1.5-0.7,3.2-0.8,4.7c-0.8,16.3,3.6,33.3,0.4,48.9c-8-16-4.2-42.4-5.1-62.8c-5.8,0.1-10.9-0.4-16.2-0.8
		c2.4-3.3,10.9-2.5,15.8-2c-5.5-4.3-15.3-1-21.3-0.8c1.1,22.1,7.5,38.8,6.7,62.8c-0.9-27.1-9.4-48.7-7.5-77.4
		c1.3,3.6,0.6,9.1,0.8,13.8c3.6-2.4,14.2-7.4,20.1-2.8c-2.2-9.3-5.4-17.7-7.5-27.2c-3.8-2.2-9.3-0.8-13,0.4c1.9-3.1,5.7-4.3,11-3.9
		c0.5-1.7-1.7-4.1-2-6.3c-4,0.7-8,1.4-11.8,2.4c-1.1-1.3-2-2.7-2.4-4.7c-1,36.1,5.2,74.6,3.6,112.5c-0.9,19.6-5.8,38.1-6.7,58
		c-0.5,10.8,0.8,20.9,0.4,30.8c-2.1-4.3-2-8.9-2.8-13.4c-0.8-4.8-0.3-10.1-1.6-14.6c-0.6-2.1-4.6-8.3-6.3-10.3
		c-3.2-3.8-8.3-5.6-10.3-9.9c-12.4-6.3-17.9-21.5-36.7-20.1c9.2,1.7,10,11.8,15,17.8c-2.2,0.1-2.5-1.7-3.9-2.4c-0.3,1.2-1,2.2-2,2.8
		c1.9,5.1,5.3,8.7,7.5,13.4c2.7-1.5,3.3-5.1,7.9-4.7c0.5,3.2-5.9,4.8-5.5,7.9c1.5,1.6,3.6-2.2,5.5-2.8c0.9,1.5-1.7,3.1-2.4,4.3
		c2.4-1.6,4.3-3.6,7.1-4.7c-1.2,3.6-4.2,5.3-6.3,7.9c6.8,9,14.6,14.9,19.3,26.1c1.8,4.2,4.5,8.7,6.7,13c2.2,4.5,4,9.3,6.3,13.4
		c10.5,18.7,28.1,33.6,36.7,53.3C90.1,332.7,82.9,321,75,310c-7.6-10.6-16.1-21.5-21.7-33.6c-1.6-3.4-2.3-7.3-3.9-10.7
		c-2.6-5.5-6.7-12.4-10.7-16.6c-5.3-5.7-12-9.3-15.8-15.8c-1.2-2.1-1.5-4.7-2.4-6.7C15.6,215.5,8.3,207.8,0,199.5
		c3.2-6.1,12.2-11.5,20.1-8.3c3.8,1.5,6.8,5.6,11,8.3c11.2,7.1,22.8,17.5,30.4,26.4c2.8-29.5,7.9-59,5.5-91.2
		c-1.3-18-2.3-37.9-3.2-56.4c-0.5-10.1-1-21.5,3.6-27.2c3.4-1.5,8.8-3.3,12.6-0.4c5.4,4.1,7.8,22.4,11.4,28.4c1-9.7-0.8-24,0-35.5
		c0.8-10.5,5.6-21.6,11.4-22.9c6.3-1.3,11,2.7,14.2,5.5c3.2,10.2,2.6,21.1,3.2,32.4c0.7,14.2,4.7,28.2,4.7,42.2
		c0,3.3-0.7,6.6-0.4,9.9c1.1,13.8,5.4,28.1,7.1,41.8c2-13,9.3-22.7,7.1-39.5c-0.4-2.9-1.7-6.4-2.4-9.9c-0.6-3.3-0.8-6.9-1.6-10.3
		c-2.5-11.1-9-20.5-7.1-31.2c0.9-4.9,6.8-8.8,13.8-7.9c10.6,9,16.3,22.2,21.7,37.9c3.9,11.2,8.1,18.6,7.5,32.4
		c-0.7,15.2-2.4,31.5-1.2,47c2.6-3.3,6.8-6,9.5-9.9c1.9-2.8,4.8-8.5,5.1-12.6c0.2-3.3-1.4-9.2-1.6-13.8c-0.1-2,0.3-3.9,0-5.5
		c-0.8-4.9-4.7-8.6-5.5-11.8c-1.9-7.2,1.7-13.6,8.3-11.1c4.8,1.9,17.4,11.8,19.3,17c1.3,3.4,1.5,8.6,2.4,13c1.3,6.9,4.1,17.7,2,24.9
		c-2.2,7.2-4.3,14.9-6.3,23.3c-1.8,7.6-5.2,15.9-5.9,23.7c-0.8,8.9-0.1,18.9,0.4,27.6c0.7,11.4,1.3,22.1,0.8,33.2
		c-0.3,6.1-0.3,12.4,0,18.2c0.9,15.9,8.4,27.1,11.4,39.5c-3.5-2.4-5.4-7.1-7.5-11.4c-1.9-3.9-4.6-8.7-5.9-13
		c-3.6-12.3-0.8-28.7-1.6-45.4c-0.7-16.1-1.7-29.1-1.2-43.4c-5.5,18.2-4.5,42.8-6.7,64.3c-3.2-45.4,7.2-80.6,18.2-113.3
		c-8.1,1-9.6-4.6-12.2-9.1c4.9,1,7.2,8.8,13.8,5.5c-3.5-2.9-9.8-5.2-11.4-8.7c4.7-0.6,7.2,4.3,11.8,5.1c1.2-3-8.7-8.7-11.4-7.9
		c-2.3,0.7-1.2,3.6-3.2,5.1c2.5-9-1.1-15-2-23.7c2.5,4.8,2.9,11.6,5.1,16.6c4.9,0,7.8,1.9,11.1,3.6c-1.8-8.9-2.6-18.8-5.1-26.8
		c-2.5-3.5-8.5-2.1-13-2.8c1.3-1.9,4.4-1.9,7.1-2.4c-0.4-1.6-3.4-3.9-5.1-5.5c-3.2,0.3-7.1,3.1-9.1,0c-0.5,6.8,2.9,9.1,4.3,14.2
		c0.9,3.2,1.1,7.7,1.6,11.8c0.4,3.6,2.1,8.1,1.6,11.4c-0.4,2.7-6,12.5-7.9,15c-3,4.1-9.2,7-9.9,11.1c-0.6,3.3,2.3,6.3,2,8.7
		c-5.4-0.1-4.1-7-6.7-9.9c-2.9-16.8,0.4-38,0.8-56.4c-7.1,3.2-15.3-0.3-18.6-5.5c4.9-0.3,6.6,2.6,9.9,3.9c3.4-1.1,6.5-2.4,8.7-4.7
		c-5.7,0.5-13.8,0.5-17-2.8c4.8-2.1,10.2,0.9,16.2,0c-2.4-7.3-14.7-2.5-20.1-3.6c3-3.6,11.9-4.1,17.4-2.8c0.3-0.1,0.4,0.2,0.4,0.4
		C161.5,93.5,157.4,81.1,152,72z M113.3,26.6c-2-2.6-8.6-3-11.1-0.8c-1,2.6-1,6.1,0,8.7c2.4-1,8.3-1.7,8.7,1.6
		c-2-0.2-8.5-1.3-7.9,0.8c2.3-0.8,5.7,0.6,8.3,0.8C112.3,34.3,113.7,31.4,113.3,26.6z M69.9,54.2c-0.5,4.1,1.1,6,2.8,7.9
		c1.5-2.2,5.9-2.2,8.3-2.4C80.7,54.7,74.5,49.9,69.9,54.2z M135.8,62.5c1.8-1.4,4.3-2,6.7-2.8c-1.1-0.5-1.1-2-2-2.8
		C135.3,55.2,132.6,59.2,135.8,62.5z M73.8,63.3c1.9-0.7,4.3-1,7.1-0.8c0.1-0.9,0.8-1.7-0.4-2C78.1,61.3,75,61.3,73.8,63.3z
		 M143.7,61.7c-2.2,0.8-6.1,0-6.7,2.4C138.6,64.2,141.7,62.5,143.7,61.7z M183.5,109.5c0,1.5,0.7,2.5,1.2,3.6c1.2-0.5,2.4-1,3.2-2
		C186.5,110.4,185.2,108.8,183.5,109.5z M5.5,199.5c1.9,3.7,5,6.3,7.9,9.1c0.8-0.7,2.1-0.8,3.2-1.2c-1.2-3.4-2.9-6.3-4.7-9.1
		C9.7,198.7,5.9,197.3,5.5,199.5z"/>
</g>
<g>
</g>
<g>
</g>
<g>
</g>
<g>
</g>
<g>
</g>
<g>
</g>
<g>
</g>
<g>
</g>
<g>
</g>
<g>
</g>
<g>
</g>
</svg>
