<?xml version="1.0" encoding="utf-8"?>
<!-- Generator: Adobe Illustrator 28.2.0, SVG Export Plug-In . SVG Version: 6.00 Build 0)  -->
<svg version="1.1" id="Layer_1" xmlns="http://www.w3.org/2000/svg" xmlns:xlink="http://www.w3.org/1999/xlink" x="0px" y="0px"
	 viewBox="0 0 226.7 326.8" style="enable-background:new 0 0 226.7 326.8;" xml:space="preserve">
<style type="text/css">
	.st0{fill-rule:evenodd;clip-rule:evenodd;fill:#ffffff;}
	
		.st1{clip-path:url(#SVGID_00000048482148458907472270000010123652406523247286_);fill-rule:evenodd;clip-rule:evenodd;fill:#00C6BC;}
	
		.st2{clip-path:url(#SVGID_00000048482148458907472270000010123652406523247286_);fill-rule:evenodd;clip-rule:evenodd;fill:#ffffff;}
	
		.st3{clip-path:url(#SVGID_00000162330546643899004880000004095783388436234393_);fill-rule:evenodd;clip-rule:evenodd;fill:#00C6BC;}
	
		.st4{clip-path:url(#SVGID_00000162330546643899004880000004095783388436234393_);fill-rule:evenodd;clip-rule:evenodd;fill:#ffffff;}
</style>
<g>
	<path class="st0" d="M136.6,118c-1.5,1.4-4.2,0.8-6.6,0.7C130.5,116.9,135.1,117.7,136.6,118z"/>
	<path class="st0" d="M141.8,165.2c4.9,0.8,8.9,5.3,10.5,10.5C148.8,172.2,145.6,168.4,141.8,165.2z"/>
	<path class="st0" d="M196.2,168.2c3.1,7.4,8,14.7,6.2,25.9C200.8,185,198.6,176.5,196.2,168.2z"/>
	<path class="st0" d="M185.4,182.6c-9.3,0.6-8.4-12.5-18.4-10.5c-1.6,0.3-1.8,1.6-3.9,2c1.7-2.4,3.6-3.8,6.9-3.6
		c2.1,0.1,4.1,1.9,4.9,1.3C178.3,175.2,183.1,179.1,185.4,182.6z"/>
	<path class="st0" d="M134.9,173.4c0.4,0.1,0.5,0.6,1,0.7c1.7,10.5,5,19.5,8.5,28.2c-5.9-6.7-7.8-17.4-10.2-27.5
		C134.7,174.5,134.9,174,134.9,173.4z"/>
	<path class="st0" d="M120.8,185.2c0.2,4.8-1,11.1-1.3,16.4C118.3,196.4,119.3,189.6,120.8,185.2z"/>
	<path class="st0" d="M177.9,195.4c1.3,4.6,1.1,10.7,1.3,16.4C177.9,207.5,176.3,200.3,177.9,195.4z"/>
	<path class="st0" d="M147.4,206.5c0.3,0,0.7,0,1,0c4.5,8,8.8,16.1,11.1,26.2C155.4,224,152,214.7,147.4,206.5z"/>
	<path class="st0" d="M220.2,216c-3.8,24.7-15.3,47.5-11.1,79c-2.5-4.9-2.7-13.3-2.3-21C207.9,251.9,215.6,234.5,220.2,216z"/>
	<path class="st0" d="M178.8,219.6c2.3,5.9,2.5,13.9,3.6,21C180.1,234.8,179.6,227.1,178.8,219.6z"/>
	<g>
		<defs>
			<path id="SVGID_1_" d="M128.6,56.2c-7-0.1-8.6,5.2-9.2,7.8c-0.5,2.6-2,22.5-2,22.5L97.8,71.8l-0.8-28.6L142.7,0l27.7,5.8
				l-12.2,82.1L139,90.1C139,90.1,138.1,56.6,128.6,56.2z"/>
		</defs>
		<clipPath id="SVGID_00000174576069328033225910000008470205479931033774_">
			<use xlink:href="#SVGID_1_"  style="overflow:visible;"/>
		</clipPath>
		
			<path style="clip-path:url(#SVGID_00000174576069328033225910000008470205479931033774_);fill-rule:evenodd;clip-rule:evenodd;fill:#00C6BC;" d="
			M124.3,45.3c1.1,0,1.4,0.7,1.3,2c-0.4,0.3-0.9,0.4-1.6,0.3C123.3,47,123.5,45.5,124.3,45.3z"/>
		
			<path style="clip-path:url(#SVGID_00000174576069328033225910000008470205479931033774_);fill-rule:evenodd;clip-rule:evenodd;fill:#00C6BC;" d="
			M135.4,51.5c-18.4-7.9-29,17.8-17.7,28.8c-3.9-1-6.8-5.1-7.2-10.2c-0.9-11.7,8.3-22.4,19.7-21.3C132.2,49.1,134.5,49.1,135.4,51.5
			z"/>
		
			<path style="clip-path:url(#SVGID_00000174576069328033225910000008470205479931033774_);fill-rule:evenodd;clip-rule:evenodd;fill:#00C6BC;" d="
			M151.5,58.4c0.4,0,0.9,0,1.3,0c0.4,0.9,0.7,1.4,0.3,2.3c-0.4-0.1-0.6,0.1-0.7,0.3C151.4,60.9,150.7,59.3,151.5,58.4z"/>
		
			<path style="clip-path:url(#SVGID_00000174576069328033225910000008470205479931033774_);fill-rule:evenodd;clip-rule:evenodd;fill:#00C6BC;" d="
			M136.7,59c0,0.4,0,0.9,0,1.3c-1,0.3-1,0.3-2,0c0-0.4,0-0.9,0-1.3C135.2,58.6,136.3,58.6,136.7,59z"/>
		
			<path style="clip-path:url(#SVGID_00000174576069328033225910000008470205479931033774_);fill-rule:evenodd;clip-rule:evenodd;fill:#00C6BC;" d="
			M138,59.4c0.5-0.1,0.6,0.3,1,0.3c0.1,0.9-0.5,1.1-1.3,1C137.6,60,137.9,59.8,138,59.4z"/>
		
			<path style="clip-path:url(#SVGID_00000174576069328033225910000008470205479931033774_);fill-rule:evenodd;clip-rule:evenodd;fill:#00C6BC;" d="
			M107.5,63C103.2,64.6,107.1,58.1,107.5,63L107.5,63z"/>
		
			<path style="clip-path:url(#SVGID_00000174576069328033225910000008470205479931033774_);fill-rule:evenodd;clip-rule:evenodd;fill:#00C6BC;" d="
			M137.7,63.3c0.8,3.9-0.6,8.3-3.9,8.5c-2.1,0.1-6.1-2.5-6.6-4.3C125.9,62.1,132.9,59.3,137.7,63.3z M134.4,69.2
			c1.1-1,2.3-5.8-0.3-4.9c2.2,1.6,0.1,3.9-1.3,3.9c-2.8,0.1-2.7-3.6-2-5.2C127.5,65.1,129.2,70.3,134.4,69.2z"/>
		
			<path style="clip-path:url(#SVGID_00000174576069328033225910000008470205479931033774_);fill-rule:evenodd;clip-rule:evenodd;fill:#00C6BC;" d="
			M145.6,82c0.5,0.8,0.9-1.3,2-1c-5.1,12.7-28.1,9-33.4-1c5.7,2.9,12.2,8.6,21,7.9c4.4-0.4,7.2-2.5,9.8-5.2
			c-3.9,3.9-14.4,5.9-20,2.3c2.5-0.7,4.6,0.6,6.9,0.7c12.8,0.3,16.7-9,20.3-18.7C153,72.4,148.9,78.5,145.6,82z"/>
		
			<path style="clip-path:url(#SVGID_00000174576069328033225910000008470205479931033774_);fill-rule:evenodd;clip-rule:evenodd;fill:#00C6BC;" d="
			M153.8,73.8c0.3,0.2,0.5,0.3,1,0.3c0.1,0.8-0.1,1.3-0.3,1.6C153,75.7,152.9,74.4,153.8,73.8z"/>
		
			<path style="clip-path:url(#SVGID_00000174576069328033225910000008470205479931033774_);fill-rule:evenodd;clip-rule:evenodd;fill:#00C6BC;" d="
			M152.1,77.4c0.5,0.4,0.5,1.9,0,2.3c-1.4,0.2-1.6-0.8-1.6-2C150.9,77.5,151.4,77.3,152.1,77.4z"/>
		
			<path style="clip-path:url(#SVGID_00000174576069328033225910000008470205479931033774_);fill-rule:evenodd;clip-rule:evenodd;fill:#00C6BC;" d="
			M142.3,57.7c-4.7-3-13.9-5.6-18-0.3c5-3.2,15.4-2.1,18.4,2.3c0.6-0.7,1-1.7,2.3-1c-1.9-4.5-8-4.7-12.1-6.9c4.9,0.1,8.9,1.1,12.1,3
			c-1.5-3.1-6.8-5.2-11.1-6.6c7-0.4,15.1,4.3,14.1,10.8c5.3,11.6-4.3,26.6-19.7,23.3c-12.9-2.8-17.6-16.4-9.2-25.9
			c1.5-1.6,4.6-4.1,8.2-3.9c-5.2,2.6-9.7,6-10.2,13.4C118.3,55.3,134.8,47.8,142.3,57.7z M135.4,57.7c-6.1-1-14.2,1.8-11.1,8.9
			c0.7-4.1,2.7-8.7,7.9-7.2c-3.2,0.9-6,3.7-5.9,6.9c0.2,4.7,7.3,5.1,5.9,6.9c5.2-0.6,6-5.6,6.9-10.5c3.3,6.2-3.4,15-10.2,11.1
			c-0.1-0.6,0.4-0.7,0.7-1c-4.8-0.3-6.7-3.6-7.9-7.5c-0.3,5.9,4,11,9.5,11.1c11.2,0.3,16.3-18.2,3.6-19.3
			C135.1,57.2,135.3,57.4,135.4,57.7z M143.6,61c2.7,4.8,0.4,11.8-3,14.4c3.8-1.7,5.8-9.2,4.3-13.1c0.3-0.7,1.4-0.6,1.3-1.6
			c-0.1-0.4-0.4-0.5-0.7-0.7C145.4,61.4,144.1,60.5,143.6,61z M139.3,78.1c-3,0.9-4.9,0.4-6.6,2.3c9.7,0,15.4-7.5,14.1-16.4
			C146.6,71.7,145,76.4,139.3,78.1z M119.7,74.1c-1.3-1.5-1.8-3.9-2.6-5.9C117.1,70.8,118.4,73.8,119.7,74.1z M129.8,80
			c-3.9-0.4-7.2-3.3-9.5-4.3C122.9,77.5,125.8,80.8,129.8,80z"/>
		
			<path style="clip-path:url(#SVGID_00000174576069328033225910000008470205479931033774_);fill-rule:evenodd;clip-rule:evenodd;fill:#00C6BC;" d="
			M143.9,37.4c-1.2,1.9-2.5,3.6-3.9,5.2c1.6-7.3,6.9-13.6,10.2-20.3c-0.8-1-1.9-1.6-3-2.3c4.7-5.2,9.5-11.1,16.1-13.4
			c-1.7,6.1-3.4,13.7-4.6,19.3c-2-0.5-2.7-0.5-4.3-1.6c-4.1,7.5-8.1,15.1-13.1,21.6C140.4,42.6,143.3,40.3,143.9,37.4z"/>
		
			<path style="clip-path:url(#SVGID_00000174576069328033225910000008470205479931033774_);fill-rule:evenodd;clip-rule:evenodd;fill:#ffffff;" d="
			M135.6,81.9c-3.9-1.2-8.6-1.4-12.5-2.6C126.4,76.3,134.4,77.9,135.6,81.9z"/>
	</g>
	<g>
		<defs>
			<path id="SVGID_00000136386799866353495410000017720401973071748008_" d="M67.1,193.3c0,0-14-4.7-18.9-4
				c-4.9,0.7-11.7,3.3-12.9,4.7c-1.2,1.5-2.5,5.5-2.5,5.5l14.1,5.7l12.9,11l-9,28l-35.2,26.2L0,267l6.3-77.8l28.5-20.7l26.8,6.9
				L67.1,193.3z"/>
		</defs>
		<clipPath id="SVGID_00000104686102432107693720000004520660826058295222_">
			<use xlink:href="#SVGID_00000136386799866353495410000017720401973071748008_"  style="overflow:visible;"/>
		</clipPath>
		
			<path style="clip-path:url(#SVGID_00000104686102432107693720000004520660826058295222_);fill-rule:evenodd;clip-rule:evenodd;fill:#00C6BC;" d="
			M49.5,179.7c0.3,0,0.7,0,1,0C52.2,182.1,47.8,182.1,49.5,179.7z"/>
		
			<path style="clip-path:url(#SVGID_00000104686102432107693720000004520660826058295222_);fill-rule:evenodd;clip-rule:evenodd;fill:#00C6BC;" d="
			M44.6,181.3c0,0.5,0,1.1,0,1.6c-1,0.5-1.5,0.1-2.3-0.3C42,181.1,43.7,180.6,44.6,181.3z"/>
		
			<path style="clip-path:url(#SVGID_00000104686102432107693720000004520660826058295222_);fill-rule:evenodd;clip-rule:evenodd;fill:#00C6BC;" d="
			M23.6,193.8c2.1-2.4,3.6-5.3,7.9-5.6c-7,4.5-13.7,18.5-5.6,25.2c1,0.8,3.6,2.1,5.6,3.3c3.1,1.8,6.7,3.7,11.1,3.3
			c9.4-0.9,11.9-10.1,17-16.1c-2.6,8.2-6.9,14.7-14.8,17.7c9.2-2.2,18.2-13.2,14.4-25.2c8.5,10.2-9.4,35.5-21.6,25.6
			c-7.5,0.7-17-7.1-18-13.8c-0.2-1.3-0.1-3.1,0.3-4.3c-0.1-1.2-1.2,0.8-1.3-0.3c1.9-12.2,7.1-22.8,21-22
			C32.3,183.7,25.4,186.1,23.6,193.8z"/>
		
			<path style="clip-path:url(#SVGID_00000104686102432107693720000004520660826058295222_);fill-rule:evenodd;clip-rule:evenodd;fill:#00C6BC;" d="
			M55.7,182.6c0.8,0.9,0.1,2-0.7,2.3C53.7,184.7,53.9,182.3,55.7,182.6z"/>
		
			<path style="clip-path:url(#SVGID_00000104686102432107693720000004520660826058295222_);fill-rule:evenodd;clip-rule:evenodd;fill:#00C6BC;" d="
			M51.5,183c1-0.3,1,0.5,1.6,0.7c-0.3,1-0.9,1.5-2,1C51,183.8,51.2,183.3,51.5,183z"/>
		
			<path style="clip-path:url(#SVGID_00000104686102432107693720000004520660826058295222_);fill-rule:evenodd;clip-rule:evenodd;fill:#00C6BC;" d="
			M52.8,189.2c-2.3-1.4-4.3-4.3-7.2-3.9C47.9,183,52.6,186.1,52.8,189.2z"/>
		
			<path style="clip-path:url(#SVGID_00000104686102432107693720000004520660826058295222_);fill-rule:evenodd;clip-rule:evenodd;fill:#00C6BC;" d="
			M33.1,187.2c-0.9-0.1-1.4-0.6-1.3-1.6C33.2,184.1,35,186.4,33.1,187.2z"/>
		
			<path style="clip-path:url(#SVGID_00000104686102432107693720000004520660826058295222_);fill-rule:evenodd;clip-rule:evenodd;fill:#00C6BC;" d="
			M39.3,188.5c-4.5,2.9-10,4.8-10.8,11.5c4.8-13.7,29.3-10,25.2,7.2c4.6-9.5-4.9-15.4-11.8-17.7c4-0.2,6.2,1.4,8.9,2.6
			c-3.3-3.8-10-4.2-14.8-6.6c10.4-0.8,21.2,4.3,20,14.1c0.8,9.1-4.8,19.3-14.4,18.4c-2.3-0.2-5.8-1.4-8.2-2.9c-1-0.7-1.6-2-2.6-2.6
			c-1.2-0.8-2.5-0.6-3.3-1.3c-1.1-1-1.3-3.4-2-4.9c-0.1-0.1-1-0.9-1-1C22.7,197.4,32,188.4,39.3,188.5z M40.3,192.8
			c-5.2,0.3-10.6,5.9-10.2,11.5c0.2,2.9,4,7.2,7.5,8.5c8.6,3.2,15.6-2.6,15.1-12.8C49.8,196.7,45.9,192.4,40.3,192.8z M44.6,215.4
			c-1.4,0.2-3-1.2-3.9,0.7c6.2,1.8,10.2-3.1,11.5-6.2C50.3,212.4,48.2,214.8,44.6,215.4z"/>
		
			<path style="clip-path:url(#SVGID_00000104686102432107693720000004520660826058295222_);fill-rule:evenodd;clip-rule:evenodd;fill:#00C6BC;" d="
			M16.7,194.1c0.7-0.1,0.9,0.2,1.3,0.3c0.1,1.2-0.5,1.7-1.6,1.6C16.4,195.3,16.4,194.5,16.7,194.1z"/>
		
			<path style="clip-path:url(#SVGID_00000104686102432107693720000004520660826058295222_);fill-rule:evenodd;clip-rule:evenodd;fill:#00C6BC;" d="
			M58,198c0.3,0,0.7,0,1,0c0.4,1.3,1.1,5.3-1,5.2C57.6,202.1,57.4,199.2,58,198z"/>
		
			<path style="clip-path:url(#SVGID_00000104686102432107693720000004520660826058295222_);fill-rule:evenodd;clip-rule:evenodd;fill:#00C6BC;" d="
			M18,203.9c-0.5,0.5-0.8,1.2-2,1C14.5,203.2,18,201.5,18,203.9z"/>
		
			<path style="clip-path:url(#SVGID_00000104686102432107693720000004520660826058295222_);fill-rule:evenodd;clip-rule:evenodd;fill:#00C6BC;" d="
			M16.7,206.2c0.1,0.8-0.5,1-1,1.3c-0.8,0.1-1-0.5-1.3-1C14.4,204.9,16.3,205.1,16.7,206.2z"/>
		
			<path style="clip-path:url(#SVGID_00000104686102432107693720000004520660826058295222_);fill-rule:evenodd;clip-rule:evenodd;fill:#00C6BC;" d="
			M21.6,216.7c0.2,1.5-0.5,2.1-2,2C18,217.6,20.1,215.5,21.6,216.7z"/>
		
			<path style="clip-path:url(#SVGID_00000104686102432107693720000004520660826058295222_);fill-rule:evenodd;clip-rule:evenodd;fill:#00C6BC;" d="
			M23.9,217.7c4.3,3.4,8.4,6.9,15.4,7.5C33,227.5,25.1,223.8,23.9,217.7z"/>
		
			<path style="clip-path:url(#SVGID_00000104686102432107693720000004520660826058295222_);fill-rule:evenodd;clip-rule:evenodd;fill:#00C6BC;" d="
			M55.4,222.6c0,0.4,0,0.9,0,1.3c-0.4,0-0.9,0-1.3,0C53.9,222.9,54.4,222.5,55.4,222.6z"/>
		
			<path style="clip-path:url(#SVGID_00000104686102432107693720000004520660826058295222_);fill-rule:evenodd;clip-rule:evenodd;fill:#00C6BC;" d="
			M49.5,226.2c0.1,1.3-0.6,1.8-2,1.6C45.8,226.6,48.7,223.9,49.5,226.2z"/>
		
			<path style="clip-path:url(#SVGID_00000104686102432107693720000004520660826058295222_);fill-rule:evenodd;clip-rule:evenodd;fill:#00C6BC;" d="
			M43.3,225.9c0.9,0.1,1.4,0.6,1.3,1.6c-0.4,0.4-1.2,0.4-2,0.3c0.1-0.4-0.1-0.6-0.3-0.7C42.2,226.4,42.8,226.2,43.3,225.9z"/>
		
			<path style="clip-path:url(#SVGID_00000104686102432107693720000004520660826058295222_);fill-rule:evenodd;clip-rule:evenodd;fill:#00C6BC;" d="
			M36.4,194.4c1.3-0.7,5.4-1.7,7.2-0.7c0.6,0.4,0.1,1,1,1.6c0.9,0.7,2.8,0.7,3.6,1.3c7.4,5.6-0.2,17.2-8.5,16.1
			C30.6,211.5,28.7,198.6,36.4,194.4z M40.3,195.1c0.7-0.1,3.5,0.3,2.6-0.3c-5.5-1-8.8,3.6-8.9,5.9
			C35.3,197.9,37.2,195.9,40.3,195.1z M48.5,204.9c2.1-5.2-3.8-10.3-9.2-7.9C45.2,195.8,48.9,199,48.5,204.9z M38.4,203.9
			c1.7,3.2,8.4,0.8,5.6-3c-0.4,1.7-1,3.2-3.3,3c-2.4-1.2,0.1-3.6,1-4.6C38.6,198.9,38.3,201.2,38.4,203.9z M37.7,208.5
			c-2.2-1.1-3.8-4.7-4.3-6.6C33.4,205.4,35.5,208.4,37.7,208.5z"/>
		
			<path style="clip-path:url(#SVGID_00000104686102432107693720000004520660826058295222_);fill-rule:evenodd;clip-rule:evenodd;fill:#00C6BC;" d="
			M31.2,227.2c-2.2,8.3-6.9,14-10.5,21c1,1.2,2.7,1.7,3,3.6c-0.7,0.5-0.4,0-1.3,0c-2.4,5-6.8,8.1-10.5,11.8
			c-0.6-0.7-0.9-1.7-1.3-2.6c1.7-3.4,1.1-9.1,3-12.5c-0.2-0.5-0.5-0.8-1-1c1-0.9,1.4-0.7,0.7-2.3c1.7,0,2.5,0.8,3.6,1.3
			c3.2-6.7,6.5-13.4,10.5-19.3C29.1,227.6,30.3,227.1,31.2,227.2z M15.1,251.2c0.1-0.8,1.1-0.6,1-1.6c-0.5,0-0.7-0.2-1-0.3
			C15.4,250,14.1,250.7,15.1,251.2z"/>
		
			<path style="clip-path:url(#SVGID_00000104686102432107693720000004520660826058295222_);fill-rule:evenodd;clip-rule:evenodd;fill:#ffffff;" d="
			M65.4,200.6c6.9,0.5,12.7,7.7,20,10.8C77.6,210.3,72.3,203.7,65.4,200.6z"/>
		
			<path style="clip-path:url(#SVGID_00000104686102432107693720000004520660826058295222_);fill-rule:evenodd;clip-rule:evenodd;fill:#ffffff;" d="
			M66.4,207.5c1.5,0.6,0.4,3.8-1,3.6C65.3,209.4,65.9,208.6,66.4,207.5z"/>
	</g>
	<path class="st0" d="M108,209.1c-7.4,4.7-18.2-1.6-24.3-5.2c-2.7-1.6-5.8-2.8-8.5-4.3c-10-5.3-17.8-10.4-33.4-6.9
		c2.2,3.2,7.6,5.9,10.5,9.5c-1.3,0-2-0.7-3.3-0.7c-1.1,7,7.2,8.5,10.2,11.8c1-2.5,1.7-7,3.9-7.2c-0.5,2.2-1.7,3.7-1.6,6.6
		c0.5,0.1,1.5-2,2-3c0.7,1.6-1,3.6-0.7,5.9c3.5,0.6,3.5-5,5.9-6.6c0.5,2.5-1,5.7-1.6,8.2c12,7.5,25.5,11.5,35.7,20.3
		c10.2,8.7,18.5,18.8,27.5,28.5c-0.1,0.8-0.9-0.4-1.3-0.3c3.7,4.2,10.1,8.5,14.4,13.1c-12.4-6.5-22-18.7-31.1-29.5
		c9.6,14.8,21,28.7,34.1,40.3c5.9,5.2,9.8,13.7,12.1,22.9c-4-5.4-6.9-11.9-11.8-16.4c4.4,9.3,10,19.3,11.5,30.5
		c-2.4-1.8-3.6-4.9-4.9-7.5c-3.8-7.7-7.8-17-10.8-25.6c-1.8-5.2-6.5-7.6-10.2-11.5c-7.4-7.9-14.1-16.2-20.3-25.9
		c-4.1-6.4-8.2-11.9-13.8-17c-7.8-7.1-19.4-12.9-30.2-17c-1.2-0.5-3.1-0.4-4.3-1c-1.1-0.6-2.6-2.2-3.9-3.3
		c-4.5-3.6-9.5-7.3-13.4-11.8c-5.6-0.5-8.9-3.3-14.1-4.3c-3.7-14.2,18.8-15.9,31.1-12.8c5.5,1.4,10.4,5.3,15.1,7.9
		c2.4,1.3,5.1,2.5,7.5,3.9c4.5,2.5,9.8,6.6,16.7,6.2c10.7-0.6,10.2-14.3,11.8-25.2c0.8-5.1,1.9-10.4,2.3-15.4
		c0.7-8.9-0.9-18.3-1.3-27.9c-0.4-9.6,0-19,0-28.5c0-8.3-0.2-18.7,0.7-27.5c1.2-12.4-0.1-23.5,8.9-27.2c2,0,3.9,0,5.9,0
		c5.5,3,5.5,8.1,6.9,16.7c3.9,25,2.9,57.7,8.2,81.6c2.4-6.2,2.6-14.6,8.2-17.7c4.5,0,8.4,0.6,13.1,0.3c5.4,3.2,7.2,10,8.5,17.4
		c2.4-5,9.5-3.3,17.7-3c2.5,2.9,3.6,7.1,4.9,11.1c11.1-5.2,15,7.8,19.3,16.4c3.1,6.2,6.4,12.1,8.9,16.4c-0.8,9.1,0,19.6-0.7,29.5
		c-0.9,14.4-7.2,26.4-8.9,39.3c-1.8,13.9,2.1,23.8,5.9,33.8c1.8,4.9,4.9,11.4,3,19.3c-2.3-4.6-1.7-9.9-3.3-13.8
		c-1.6-4-4.8-6.6-6.2-10.2c-2.6-6.4-3.7-18.1-2.9-28.2c1-13.3,8.1-24.6,9.2-38.4c0.3-4.5-0.2-10.3,0-15.7c0.3-7,2.5-15.7-3-18.7
		c-1.2-0.5-3.2-0.3-4.9-0.3c0.5-1.5,2-2.1,4.3-2c-3.4-6.5-6.8-15.9-10.8-22.9c-2-0.2-4.7,0.4-6.2-0.3c0.7-1.1,2.4-1.3,4.3-1.3
		c-1.4-2.2-3.6,0.7-5.9,0.7c2.5,5.5,4.8,10.9,7.9,15.7c1.3,2,4,2.9,4.3,5.6c-1.8,1.1-2.7-1.4-3.9-2c-0.1,5.9,0.5,12.5-3.3,14.8
		c0.1-6.7,2.9-12.5,1-18.7c-1.1-3.6-5.1-7.3-7.2-11.1c-2.4-4.3-2.9-8.6-5.2-12.8c-2.9,1-9.1,0.8-9.5-0.7c-1-0.6-2.7,1.1-3.9,0.3
		c1.6-4.8,8.6-0.1,11.8-2c-6-1.7-12.9-2.4-15.4,2.6c1.2,5.7,3.4,10.4,7.5,13.1c0.1,1.3-1.9,0.5-1.6,2c-9.2-4.8-8.3-19.6-12.8-29.2
		c-4.9-0.6-10.6-1-14.8-0.7c2.4-3,8.3-0.8,11.1-3c-2.9-0.9-8-0.5-11.1,0.3c-2.9,6-7.1,12.4-6.6,20.7c3.9,0,1.2-9.5,4.3-11.5
		c0.2,5.6-0.7,10-2.6,13.4c-6.5-0.2-8.1-7.8-8.9-13.4c-1.2-8.4-1.3-18.5-2.3-26.6c-5.7,0.8-17.4,1.6-19-2.6
		c5.2,0.9,13.7,2.4,18.7,0.3c0-0.9,0-1.7,0-2.6c-1.3,1.4-0.7,0.1-2-0.7c-5.1-0.1-10.1,0-14.4,0.7c2.9-2.6,9.3-3,14.4-2.3
		c-5.5-2.7-12.1,0.4-16.4,2c3.1-3,8.3-3.9,14.1-4.3c-3.4-2.1-9.3-1.1-13.8-0.7c2.6-3.7,11.3-2.8,15.4-1.3c0.2-5.4-1.6-13.5-0.7-19.7
		c1.9,6.1,0.9,15.1,2.6,21.3c0.2-14.3-1.8-29.2-2.6-43.6c-1.7,0.7-1,2.1-0.7,3.6c-3.3-0.6-7.8-1.5-11.5-0.7c-1.3-1.2-0.8-4.2-2-5.6
		c-3.9,13.9-2.5,29.7-3.3,45.9c-0.9,18.9,3.4,38,2.3,55.7c-0.4,7.2-2.4,14.3-3.3,21.3c-1.4,10.7-3.3,21.2-11.1,25.6
		c-5.6,0-10.5-0.7-14.1-2.6C96.3,211.3,105.7,213.9,108,209.1z M125.1,59.3c1-0.4,4.1-1.4,4.9,0c-2.8-0.2-4.2,1-6.2,1.6
		c0.3,2.4-0.7,6.1,0.7,7.5c2-2.4,7.2-1.7,8.9,0.7C136.5,62.5,130.6,53.1,125.1,59.3z M124.8,69.5c2.1-0.2,5,0.4,6.6-0.3
		C129.6,67.3,126.3,67.9,124.8,69.5z M167.4,141.3c0.9-0.3,0.8,0.5,1.6,0.3c0.1-0.8-0.5-1-1-1.3C168,140.8,167.5,140.9,167.4,141.3z
		 M34.3,197.3c2.1,2.6,5.7,3.7,8.9,5.2c1-0.9,2.2-1.7,2.9-3C43.2,196.8,38.4,194,34.3,197.3z M44.8,202.9c0,1,0.8,1.1,1.6,1.3
		c-0.2-1,0.3-1.2,0.3-2C45.8,202.2,45.7,203,44.8,202.9z"/>
</g>
<g>
</g>
<g>
</g>
<g>
</g>
<g>
</g>
<g>
</g>
<g>
</g>
<g>
</g>
<g>
</g>
<g>
</g>
<g>
</g>
<g>
</g>
</svg>
