<?xml version="1.0" encoding="utf-8"?>
<!-- Generator: Adobe Illustrator 28.2.0, SVG Export Plug-In . SVG Version: 6.00 Build 0)  -->
<svg version="1.1" id="Layer_1" xmlns="http://www.w3.org/2000/svg" xmlns:xlink="http://www.w3.org/1999/xlink" x="0px" y="0px"
	 viewBox="0 0 219.6 355.3" style="enable-background:new 0 0 219.6 355.3;" xml:space="preserve">
<style type="text/css">
	.st0{fill-rule:evenodd;clip-rule:evenodd;fill:#ffffff;}
	
		.st1{clip-path:url(#SVGID_00000037659615659800163120000015776021802176281734_);fill-rule:evenodd;clip-rule:evenodd;fill:#00C6BC;}
	
		.st2{clip-path:url(#SVGID_00000037659615659800163120000015776021802176281734_);fill-rule:evenodd;clip-rule:evenodd;fill:#ffffff;}
</style>
<g>
	<path class="st0" d="M114.5,101.6c-8.6,1-17.7,1.5-21.9,6.9c-1.1-1.7,0.3-3.7,0.8-5C98.4,100.9,108.7,96.5,114.5,101.6z"/>
	<path class="st0" d="M115.2,104.2c1.6,0.4,2.7,2.7,1.9,4.2C115.6,108,114.5,105.7,115.2,104.2z"/>
	<path class="st0" d="M114.5,108.5c-2.1,0.5-4.4-0.1-6.9,0c-5,0.1-10.5,2.6-13.4,0.4C99.9,108.4,110.2,103.1,114.5,108.5z"/>
	<path class="st0" d="M115.6,113.1c-4.6,4.5-12.4,4.4-19.6,2.7c1.2-2.6,5.5-1.6,8.4-1.9C108.3,113.5,111.3,113,115.6,113.1z"/>
	<path class="st0" d="M66.1,131.5c1.7,18.9,0.5,40.7,3.1,58.7C65.6,173.8,63.5,150.3,66.1,131.5z"/>
	<path class="st0" d="M162.8,191c0.3-2.8-2.9-5.3-3.1-8.8c4.5,6.1,6.2,15,10.7,21.1c-4.2-3.1-6.6-8-8.4-13.4
		C162.5,190,162.8,190.3,162.8,191z"/>
	<path class="st0" d="M91.4,189.8c0.4-0.1,0.7,0.1,0.8,0.4c-0.6,9.4-0.9,19.8-0.8,28.8C88.1,211.9,89.2,197.2,91.4,189.8z"/>
	<path class="st0" d="M78.4,204.4c2.9,4.9,1.7,14,1.2,20.3C77.7,220,75,209.5,78.4,204.4z"/>
	<path class="st0" d="M133.7,204.4c0.4,0,0.8,0,1.2,0c1.8,8.8,4.4,20.1,2.3,30.3C135.4,225.2,135,214.3,133.7,204.4z"/>
	<path class="st0" d="M192.8,206c-4.5-0.1-6.7,2.3-10.7,2.7C182.7,205.4,190.1,202.2,192.8,206z"/>
	<path class="st0" d="M29.3,206c10.4,10.7,18.7,31.3,24.2,47.2C44.4,238.4,39.3,219.7,29.3,206z"/>
	<path class="st0" d="M142.5,214.8c2.9,14.1-1.1,29.7,0,45.7C138,247.1,142.7,229.8,142.5,214.8z"/>
	<path class="st0" d="M201.2,221.3c0.8,13.6,2.4,27.5,1.5,41.1c-0.6,9.8-3.1,19.6-4.2,29.6c-1.1,10.2-2,20.4-3.5,30.3
		c-1.6-12.5-0.1-23.9,1.1-35.3c1.3-11.1,4.9-21.7,5-32.6C201.3,243.8,199.3,232.8,201.2,221.3z"/>
	<path class="st0" d="M110.6,288.9c-12.7-14.1-19.8-33.7-26.9-53.4c0-0.1,0.1-0.3,0-0.4c2.6,2.8,4.5,8.4,6.5,13.1
		C96.3,261.6,103.4,277.2,110.6,288.9z"/>
	<g>
		<defs>
			<polygon id="SVGID_1_" points="63.8,77.9 65.3,57.2 68.6,44.4 74.3,40.8 80.1,40.8 83.8,44.4 87,49.1 88.7,40.1 93.2,33.5 
				97.7,30.2 104.3,30.4 109.6,34.1 112.6,48.1 115.6,71.3 139.3,63.2 149.2,28.5 130,2.9 97.7,0 45.3,10.1 33.7,40.1 40.9,67.8 			
				"/>
		</defs>
		<clipPath id="SVGID_00000144322853928167408060000014842874177025279629_">
			<use xlink:href="#SVGID_1_"  style="overflow:visible;"/>
		</clipPath>
		
			<path style="clip-path:url(#SVGID_00000144322853928167408060000014842874177025279629_);fill-rule:evenodd;clip-rule:evenodd;fill:#00C6BC;" d="
			M108.9,6c0.5,0,1,0,1.5,0c0.3,1.1,0.3,1.2,0,2.3c-0.5,0-1,0-1.5,0C108.4,7.8,108.4,6.5,108.9,6z"/>
		
			<path style="clip-path:url(#SVGID_00000144322853928167408060000014842874177025279629_);fill-rule:evenodd;clip-rule:evenodd;fill:#00C6BC;" d="
			M65.9,21.8c0.9-0.1,1.5,0.1,1.9,0.4c0.3,1.1-0.5,1-0.4,1.9c-0.5,0-1,0-1.5,0C65.4,23.6,65.4,22.3,65.9,21.8z"/>
		
			<path style="clip-path:url(#SVGID_00000144322853928167408060000014842874177025279629_);fill-rule:evenodd;clip-rule:evenodd;fill:#00C6BC;" d="
			M135,23.7c0.6-0.1,0.7,0.4,1.2,0.4c0.1,1-0.5,1.3-1.5,1.2C134.4,24.4,134.9,24.2,135,23.7z"/>
		
			<path style="clip-path:url(#SVGID_00000144322853928167408060000014842874177025279629_);fill-rule:evenodd;clip-rule:evenodd;fill:#00C6BC;" d="
			M60.9,24.1c0.9-0.1,1.5,0.1,1.9,0.4c0.2,1.4-0.3,2.2-1.5,2.3c0-0.4-0.5-0.3-0.8-0.4C60.5,25.4,60.5,24.5,60.9,24.1z"/>
		
			<path style="clip-path:url(#SVGID_00000144322853928167408060000014842874177025279629_);fill-rule:evenodd;clip-rule:evenodd;fill:#00C6BC;" d="
			M74.3,74.4c-5,1.6-9-0.6-12.3-1.9c-3.1-1.3-6.4-1.5-8.1-2.7c-6-4.1-8-13.9-6.9-23c1.9-15.1,17.1-21.8,33.8-21.1
			c1.3,0,0.7-1.9,2.3-1.5c1.7,1.4-0.6,2.7,0.4,4.6c-6.4-2.9-14.8-0.1-20.7,1.9c-0.4,0.6,1.6,2.3,0,3.5c-1.7,0.1-2-1.1-2.3-2.3
			c-14,3.4-15.9,31.7-2.3,37.2c-3.8-5.6-10-24.2-1.2-30.3C50.7,51,57,67.6,66.7,72.1C69,73,73.2,72.2,74.3,74.4z"/>
		
			<path style="clip-path:url(#SVGID_00000144322853928167408060000014842874177025279629_);fill-rule:evenodd;clip-rule:evenodd;fill:#00C6BC;" d="
			M58.6,37.9C52.9,34.9,62.8,33.2,58.6,37.9L58.6,37.9z"/>
		
			<path style="clip-path:url(#SVGID_00000144322853928167408060000014842874177025279629_);fill-rule:evenodd;clip-rule:evenodd;fill:#00C6BC;" d="
			M75.1,38.7c-1.5,2.6-4.7,1.8-6.5,4.2c-2.1,2.9-1.6,6.8-0.8,11.1c-0.6-7.8,4-13.3,13.4-12.3c-1-1.7-3.5-0.7-5-1.2
			c11.3-5.4,15.5,19.1,4.6,21.1c1.2-2.4,3-4.2,4.2-6.5c0.3-5.5-0.8-9.7-3.8-11.9c-2.5,0.5-4.5,0.2-6.1,0.8c-8.4,2.9-6,17.8,5.8,13.8
			c-1.1,2.6-4.1,3.5-7.3,3.1C63.1,59.6,61.2,37.2,75.1,38.7z"/>
		
			<path style="clip-path:url(#SVGID_00000144322853928167408060000014842874177025279629_);fill-rule:evenodd;clip-rule:evenodd;fill:#00C6BC;" d="
			M47.1,44c-0.5,1.6-2.1,2.9-3.5,1.5C43.1,42.4,46.3,41.9,47.1,44z"/>
		
			<path style="clip-path:url(#SVGID_00000144322853928167408060000014842874177025279629_);fill-rule:evenodd;clip-rule:evenodd;fill:#00C6BC;" d="
			M77.8,44.4c7.4-0.8,7.9,11.2,1.5,12.7c-3.6,0.8-9.1-1.4-8.4-6.9C71.3,46.7,74.3,44.8,77.8,44.4z M75.1,50.2
			c-0.2,1.2,0.7,1.4,0.4,2.7c2.3,0,3.5-1.1,5.4-1.5c0.8-2.8-1.8-6-3.1-4.2c-0.7,0.4,1.6,1,1.2,2.3C79.2,53.1,76.1,52.1,75.1,50.2z"
			/>
		
			<path style="clip-path:url(#SVGID_00000144322853928167408060000014842874177025279629_);fill-rule:evenodd;clip-rule:evenodd;fill:#00C6BC;" d="
			M123.9,50.9c0.7-0.1,0.7,0.3,0.8,0.8c-3,6.1-7.5,10.7-16.9,10.4C113.8,59.1,120.6,56.8,123.9,50.9z"/>
		
			<path style="clip-path:url(#SVGID_00000144322853928167408060000014842874177025279629_);fill-rule:evenodd;clip-rule:evenodd;fill:#00C6BC;" d="
			M104.3,54.8c0.1,1.7,0.2,3.5-1.5,3.5C100.7,57.5,102,53.3,104.3,54.8z"/>
		
			<path style="clip-path:url(#SVGID_00000144322853928167408060000014842874177025279629_);fill-rule:evenodd;clip-rule:evenodd;fill:#00C6BC;" d="
			M87,61.3c-0.6,2.9-3.3,3.8-6.9,3.8C81.5,63,84.3,62.2,87,61.3z"/>
		
			<path style="clip-path:url(#SVGID_00000144322853928167408060000014842874177025279629_);fill-rule:evenodd;clip-rule:evenodd;fill:#00C6BC;" d="
			M76.3,69.8c-4,2.8-15,1.8-13.4-4.2C65.4,68.8,71.6,68.5,76.3,69.8z"/>
		
			<path style="clip-path:url(#SVGID_00000144322853928167408060000014842874177025279629_);fill-rule:evenodd;clip-rule:evenodd;fill:#00C6BC;" d="
			M94.7,34.4c1.5-1.8,2.5-4.1,4.2-5.8c3-0.4,4.2-2,6.5-2.3c16.2-2.1,17.6,21.9,4.6,23.8c-4.4,0.6-5.9-1.6-11.5-1.9
			c2.1,2,5.6,2.6,8.4,3.8c-2.4,2.4-6.4,0.1-8.8-0.8c0.2,0.5,0.5,0.8,1.2,0.8c-3.7,0.5-7.3-2.4-9.2-5c1.4,4.3,1.7,10.9-1.5,13.4
			c1.9-8.4-2.2-17.3-5.4-21.5c3.3,0.6,4.1,3.9,6.1,5.8c-1-5-1.6-12.7,2.7-14.6c-2.1,6.9-1.7,17.8,4.2,20c-5.2-5.2-5.6-26,5.8-25.7
			C98.8,27,95.5,29.5,94.7,34.4z M114.6,31c-3.5-3.4-10.8-3.9-15-0.8c-3.5,3.9-5.6,9.5-2.7,13.8c5.1,7.7,22,5.1,19.2-6.1
			c-0.9,6.5-6.1,9.9-11.5,9.2c-5.1-0.6-8.6-7.2-6.1-12.7c2.2-5,15.7-7.4,17.3,0C115.9,32.8,114.7,32.5,114.6,31z M108.9,31.8
			c1.5,1.7,2.5,3.9,3.1,6.5c0-0.4,0.7-0.5,0.8,0c-0.2,5.2-9.7,7-11.5,1.9c0.3,1.9,1.4,2.9,2.7,3.8C114.7,46.8,115.3,31.5,108.9,31.8
			z M104.7,40.2c3.4,0.4,5.9-4.5,2.7-6.1c-0.1,0.9,1.1,4.5-1.9,4.2c-1.7-1.9,0.5-4.6-0.4-5C103,34.3,103.2,38.6,104.7,40.2z"/>
		
			<path style="clip-path:url(#SVGID_00000144322853928167408060000014842874177025279629_);fill-rule:evenodd;clip-rule:evenodd;fill:#00C6BC;" d="
			M95.1,19.9c17.2-7.4,35.3,1.7,35.7,20c0.2,10-2.2,21.7-11.5,24.2c7-7.1,12.1-21,7.7-32.6c-5.2-13.7-30.6-16.8-38.8-3.1
			c11.6-12.8,37.2-8.6,36.8,11.9c-0.1,6.4-3,10.8-7.7,13.4c0.8-3.2,5.2-6.3,5.4-11.5c-1.3,2.2-3.6,5.3-5.4,5.8
			c1.2-2.7,2.8-4.6,3.1-7.7c0.9-11.1-7.7-17.3-19.6-13.4c1.9-2.7,6.5-2.7,11.1-2.7c-6.8-2-16.2-1.6-20.3,3.1
			c-2.1,2.4-1.7,5.6-3.8,8.1c-2.5-1.9-7.8-1.1-11.1-0.4c2.2,0.8,8.2-0.1,9.6,2.7c-6.1-0.9-13.9-0.6-18.4,1.9c-5.7,3.2-7,12.9-3.1,18
			c3.4,4.5,8.4,3.6,15.4,4.2c-0.6,1.5-2.1,1.8-2.7,1.9c-11.7,2.5-19.3-7.7-16.1-19.2c2.3-8.4,11.8-12,23.8-11.1
			C76.5,27,61.9,33.8,59,42.5c-1.7,5.2,0.1,13.9,2.7,17.7c3.3,4.8,9.2,4.2,15.7,6.5C64,71.4,56.2,60.3,56.3,48.3
			c0.1-13.8,14.9-23,30.3-17.3c-3-8.7,10.9-17.7,19.6-18.4c4.8-0.4,8.8,0.9,12.3,2.3c1.2-0.3,0.8-2.3,3.1-1.5
			c0.8,1.1,1.4,1.9,0.4,3.1c5.6,3.7,10.1,8.6,11.5,16.5c0.6,0.6,2.8-0.6,2.7,1.5c-0.4,1.4-1.6,0.7-2.3,1.2c1.3,7.6,0.2,16.3-4.6,20
			c0.2-4.1,1.9-6.6,2.3-10c2.7-23.7-17.5-37-36.1-26.5C95.4,19.4,95.1,19.5,95.1,19.9z"/>
		
			<path style="clip-path:url(#SVGID_00000144322853928167408060000014842874177025279629_);fill-rule:evenodd;clip-rule:evenodd;fill:#ffffff;" d="
			M110.2,62.4c-4.9,0.5-11.9-0.7-18,0.8C95.5,59.4,106.6,58.1,110.2,62.4z"/>
	</g>
	<path class="st0" d="M115.2,94.3c0.7-1.9,1.7,2,2.7,2.3c-3.5-19.7-7-39.3-9.2-60.3c-1,4.7-0.3,10.9-1.5,15.4
		c-2.6-1.8-11.8-1.8-15.4-0.8c-0.6-3.9-0.3-8.6-0.4-13.1c-5.2,13.9-0.7,30.1-0.8,44.9c-0.1,10.3-0.8,21.1,0,31.9
		c0.8,10.8,2.6,21.2,3.1,31.1c0.4,8.8,1.4,18.4,2.3,26.9c0.6,5.8,3.1,10.8,0.4,14.6c-5.9-1-3.5-14-3.8-22.3
		c-0.7-15.2-3.7-30.7-4.6-44.1c-3.9,1.4-14.4,3.4-16.5-1.2c5.6,0.6,10.4-0.2,16.5,0c0.2-1.7-0.2-2.9-0.4-4.2
		c-6.4,0.9-14.4-1.8-20,1.2c-0.3-1.9,4.4-3.8,8.4-4.2c3.6-0.4,7.7,1.2,11.1,0.8c1.6-7.6-16.1-2.2-18.4-3.8c3.5-2.6,12-3.7,16.9-1.5
		c2.2-2.9,0.9-7.3,0.8-11.1c-0.4-7.8,0.4-16.5-0.4-23.8c-4.7-1.9-12.3-1.9-18-1.5c3.8-3.8,15.6-4.5,18,0.8
		c-0.8-6.5-0.5-14.1-1.2-20.7c-1.5,2.8-0.2,6.9-1.9,8.8c-1.7,1.1-1-1.2-2.7-1.2c-3.3,0.4-6.8,0.6-10.4,0.8c-1-2.7-1.7-5.7-1.5-9.6
		c-3.6,19.1-2.5,39.3-3.5,61c-0.5,11.5-1.8,22.6-2.3,33.8c-0.6,13.2,1.6,26,1.9,39.2c0.2,8.2-2.1,17-3.1,25.7
		c-1.4,12.6-2.4,26.1-3.1,40.7c-0.2,5.2,0.6,10.2-1.5,13.8c-2.5-8.1,0.1-15.5-1.5-23.8c-0.9-4.9-6.5-11.5-9.2-16.5
		c-3.3-6.1-6-10.8-10.4-15.4c-2.6-2.8-6.1-5.3-9.2-8.1c-3.1-2.8-6.1-7.2-11.1-6.1c1.2,5.1,7.2,8.7,9.2,14.2
		c-3.8-2.4-6.3,0.7-8.8,2.7c2.1,8.8,5.9,15.9,8.1,24.6c3.6-2.1,7.1-5.3,12.3-4.6c-3.3,3.2-9.6,3.5-10.7,8.8
		c3.3-0.7,6.4-4.8,10.7-5.8c-2.2,3.7-6.9,4.9-8.8,8.8c2.3,1.9,4.9-2.1,7.7-2.3c-0.8,3.1-3.4,4.5-5.4,6.5c2,5.1,6.1,8.7,9.6,13
		c3.2,3.9,9.3,8.7,10.7,13.1c3.9,12.1,9.5,25.5,17.3,34.5c2.8,3.3,6.7,6.2,10,9.2c6.6,6.2,12.8,12.4,19.2,19.2
		c2.9,3.1,6.8,5.9,8.4,10.4c-2,0.8-3.5-1.8-4.6-2.7c-4.5-3.5-8.4-7.2-12.7-11.5c-5.3-5.3-10.6-11.7-16.1-16.1
		c-1.1-0.8-3.2-1.5-4.6-2.7c-5-4.1-8.8-9.9-11.9-15.4c-3.2-5.7-4.9-12.5-8.1-19.2c-2.9-6-7-12-10.7-16.5c-4.2-5-9.6-9.7-11.9-15
		c-1.3-3-1.7-6.2-3.1-9.2c-1.2-2.8-2.4-5.7-3.5-8.4c-2.3-5.9-3.7-12.4-6.5-17.7c-1.1-2.1-3.7-4.4-5.8-6.9c-2.4-2.9-6.9-6.3-5-11.1
		c2.4-6.1,18.8-4.3,23.8-1.2c2.4,1.5,6.4,5.6,8.8,8.1C40.6,208.9,51,219.6,55,229c0.4-13.1,6.5-27.6,5.4-43.8
		c-0.9-12.1-2.3-24.4-2.3-37.6c0-20.3,1.8-36.5,2.7-56.8c0.3-6.7,0.8-16.1,1.5-23.8c1.2-12.4,1.6-26.2,12.3-28
		c6.6-1.1,8.9,1.9,11.5,5.4c-0.5-13.9,20.1-22.8,25.7-8.8c1.6,3.9,2,10.2,2.7,15.7c4.3,35.4,14.6,75.7,15,113.6
		c3.8-2,7.1-5.6,12.3-5.4c1.6,0.1,3.2,1.3,5.4,1.9c2.1,0.6,4.7,0.5,6.1,1.2c6,2.9,7.7,11.5,11.1,16.1c7.3-6.1,12,0.8,17.3,5.8
		c3.5,3.2,5.8,6.1,9.2,9.2c6,5.5,14.3,11,15.4,21.5c0.7,7.7,0.4,16.6,0.8,25.3c0.3,5.6,1.7,11.3,2.3,17.3
		c2.4,24.3-8.2,47.2-5.4,66.8c0.8,5.8,4.4,12,6.9,16.5c2.8,5.1,7,9.2,8.8,14.2c-2.4-0.6-4.7-2.9-6.5-5c-5.7-6.7-12.3-19.4-13.1-30.3
		c-1.4-19.8,6.6-40.4,5.4-62.6c-0.7-11.9-1.8-26.4-2.7-37.6c-0.2-2.9-0.6-6.9-1.5-9.2c-1-2.4-4.4-5.5-6.9-8.1
		c-7.1-7.4-14.4-15.1-21.9-21.9c-2.1,0.5-4.4,0.7-6.5,1.2c2.3,6.2,8.5,11.1,11.5,17.7c1.9,4.2,3.4,11.6,2.3,17.7
		c-0.3,1.6-1.4,2.7-1.9,4.2c-2.2,6.6-2.1,14.7-4.6,21.5c-1.7-15.2,7.1-28.3,0.8-41.5c-1.2-2.5-3.3-4.8-5-7.3
		c-4.7-7.1-9.6-15-12.7-23.8c-7-4-15.6,1.4-22.6,0.8c3.2-3.2,9.2-3.6,13.8-5.4c-6.6-3.2-13.9,0.3-17.7,3.5c1.9,11.7,4,23.1,9.6,31.1
		C117.8,179.9,128.2,124.4,115.2,94.3z M94.9,34c-0.4,3.3-0.8,8.7,0,11.9c1.9-1.2,3.4-2.8,6.9-2.3c-0.3,2.1,2.5,1.1,2.3,3.1
		c-2.6-0.9-5.8-1.8-7.7,0.4c3,0,6-0.1,8.4,0.4c0.7-4.2,0.9-8.8,0.8-13.8C103.5,32,96.5,31.7,94.9,34z M83,44.7
		c-5.5-6.4-14.1-0.5-11.1,9.6c1.9-0.7,6.5-2.2,8.4-0.4c-2.3,0.9-5.4,1-7.3,2.3c2.6,0,5.1,0,7.7,0C80.8,51.8,82.9,49.3,83,44.7z
		 M3.5,197.5c3,3.1,5.9,6.4,9.2,9.2c1.5-1.2,4-1.3,6.1-1.9C15.8,200.8,8.7,188.8,3.5,197.5z M13.5,208.6c0.5,0,0.4,0.7,0.8,0.8
		c0.1-0.5,1.5-1.4,0.4-1.9C14.6,208.2,13.4,207.8,13.5,208.6z"/>
</g>
<g>
</g>
<g>
</g>
<g>
</g>
<g>
</g>
<g>
</g>
<g>
</g>
<g>
</g>
<g>
</g>
<g>
</g>
<g>
</g>
<g>
</g>
</svg>
