<?xml version="1.0" encoding="utf-8"?>
<!-- Generator: Adobe Illustrator 28.2.0, SVG Export Plug-In . SVG Version: 6.00 Build 0)  -->
<svg version="1.1" id="Layer_1" xmlns="http://www.w3.org/2000/svg" xmlns:xlink="http://www.w3.org/1999/xlink" x="0px" y="0px"
	 viewBox="0 0 210 391.6" style="enable-background:new 0 0 210 391.6;" xml:space="preserve">
<style type="text/css">
	.st0{fill-rule:evenodd;clip-rule:evenodd;fill:#ffffff;}
	
		.st1{clip-path:url(#SVGID_00000106867746653915576610000015733893181192361400_);fill-rule:evenodd;clip-rule:evenodd;fill:#00C6BC;}
</style>
<g>
	<path class="st0" d="M49.3,118.7c0.3,2.3-1.1,2.8-1.8,4.1C46.2,121.6,46.8,118.5,49.3,118.7z"/>
	<path class="st0" d="M61.5,121.9c-2.3,3.2-7.4,3.8-11.7,5C52.6,124.4,56.6,120.9,61.5,121.9z"/>
	<path class="st0" d="M115.6,185.9c5.5,8.6,9.3,19,13.1,29.3C121.5,208.3,118.3,197.4,115.6,185.9z"/>
	<path class="st0" d="M127.8,200.8c2.7,4.2,7.5,7.8,8.6,14c1.2,6.8-0.8,15.3,0.5,23.9c-1.8-2.2-0.1-9.4-3.2-9
		C135.5,217.3,132,208.4,127.8,200.8z"/>
	<path class="st0" d="M87.6,201.3c2.5,2.6,4.2,7.2,5.4,11.7c1.2,4.4,2.7,9.7,2.3,13.1C91.2,221.1,90,209.4,87.6,201.3z"/>
	<path class="st0" d="M79.1,204.9c4.6,2.8,5.3,9.4,7.2,14.4c2,5.3,4.8,9.5,7.7,13.5C85.1,227.7,79.8,216.7,79.1,204.9z"/>
	<path class="st0" d="M95.8,245.9c3.4-1.7,4,2.2,5.4,3.2C99.3,249.9,97.5,246.8,95.8,245.9z"/>
	<path class="st0" d="M134.5,249.1c0.9-0.4,0.9,2.3,1.4,0.9c3.3,12.9,6,26.5,9,39.7C140.3,277.3,136,264.5,134.5,249.1z"/>
	<path class="st0" d="M202.2,252.7c-1,29.3-12.4,52.2-15.8,80.7c-2.1-12.9,3.1-23.6,5.9-33.4C196.6,284.7,198.5,269.1,202.2,252.7z"
		/>
	<path class="st0" d="M52.5,279.3c7.3,16.8,15.8,32.3,25.3,46.9C66.3,313.5,56.7,299.1,52.5,279.3z"/>
	<g>
		<defs>
			<path id="SVGID_1_" d="M37.5,81.4c0,0-3.3-19.6-1.4-28.9c1.9-9.3,4.4-14.4,8.7-15.3c4.3-0.9,10,0.1,11.5,2.2
				c1.6,2.1,10.6,28.8,11.5,32.9c0.8,4.1,17.9,2.8,17.9,2.8l76.1-11.1l30.4-19.9l-12.6-28.7L63.1,0L30.8,12L0,42.2l7,28.7L37.5,81.4
				z"/>
		</defs>
		<clipPath id="SVGID_00000105398073070427225880000008766320100853702839_">
			<use xlink:href="#SVGID_1_"  style="overflow:visible;"/>
		</clipPath>
		
			<path style="clip-path:url(#SVGID_00000105398073070427225880000008766320100853702839_);fill-rule:evenodd;clip-rule:evenodd;fill:#00C6BC;" d="
			M63,12.4c-0.4,0.2-0.8,0.4-0.9,0.9C58,12.8,62.6,8.2,63,12.4z"/>
		
			<path style="clip-path:url(#SVGID_00000105398073070427225880000008766320100853702839_);fill-rule:evenodd;clip-rule:evenodd;fill:#00C6BC;" d="
			M45.9,14.2c0,1.2,0.3,2.7-0.9,2.7c-1.6,0.3-1.4-1.3-1.4-2.7C45,13.9,44.5,13.9,45.9,14.2z"/>
		
			<path style="clip-path:url(#SVGID_00000105398073070427225880000008766320100853702839_);fill-rule:evenodd;clip-rule:evenodd;fill:#00C6BC;" d="
			M37.8,14.6c1.6-1.6,2.1,1.6,0.9,1.8C37.8,16.6,37.1,15.4,37.8,14.6z"/>
		
			<path style="clip-path:url(#SVGID_00000105398073070427225880000008766320100853702839_);fill-rule:evenodd;clip-rule:evenodd;fill:#00C6BC;" d="
			M69.4,17.8c0.3,2.6-1.2,2.9-3.2,2.3C65.9,18,67.8,16.5,69.4,17.8z"/>
		
			<path style="clip-path:url(#SVGID_00000105398073070427225880000008766320100853702839_);fill-rule:evenodd;clip-rule:evenodd;fill:#00C6BC;" d="
			M35.1,21.4c-1.8,0.2-2.8-0.5-2.7-2.3C33.8,17.9,35.8,19,35.1,21.4z"/>
		
			<path style="clip-path:url(#SVGID_00000105398073070427225880000008766320100853702839_);fill-rule:evenodd;clip-rule:evenodd;fill:#00C6BC;" d="
			M70.7,28.2c-6.7-3.2-13-6.8-22.5-7.2C56.5,16.2,68.6,21,70.7,28.2z"/>
		
			<path style="clip-path:url(#SVGID_00000105398073070427225880000008766320100853702839_);fill-rule:evenodd;clip-rule:evenodd;fill:#00C6BC;" d="
			M23.4,28.2c0.5,0,0.9,0,1.4,0c0.4,0.5,0.6,1.2,0.5,2.3c-1.1-0.2-1,0.8-2.3,0.5C22.4,29.5,22.8,29.3,23.4,28.2z"/>
		
			<path style="clip-path:url(#SVGID_00000105398073070427225880000008766320100853702839_);fill-rule:evenodd;clip-rule:evenodd;fill:#00C6BC;" d="
			M81.5,30.4c0.7,2.5-2.6,2.9-2.3,0.5C79.8,30.5,80.5,30.3,81.5,30.4z"/>
		
			<path style="clip-path:url(#SVGID_00000105398073070427225880000008766320100853702839_);fill-rule:evenodd;clip-rule:evenodd;fill:#00C6BC;" d="
			M20.2,39.4c0.5,1.3,0.1,1.5-0.5,2.7c-1.6,0.1-2.4-0.6-2.3-2.3C18,39.4,19.1,39.4,20.2,39.4z"/>
		
			<path style="clip-path:url(#SVGID_00000105398073070427225880000008766320100853702839_);fill-rule:evenodd;clip-rule:evenodd;fill:#00C6BC;" d="
			M9.4,49.8C7.7,45.8,14.1,49.1,9.4,49.8L9.4,49.8z"/>
		
			<path style="clip-path:url(#SVGID_00000105398073070427225880000008766320100853702839_);fill-rule:evenodd;clip-rule:evenodd;fill:#00C6BC;" d="
			M82,52.5c0.5,0,0.9,0,1.4,0C85.7,55.8,79.7,55.8,82,52.5z"/>
		
			<path style="clip-path:url(#SVGID_00000105398073070427225880000008766320100853702839_);fill-rule:evenodd;clip-rule:evenodd;fill:#00C6BC;" d="
			M17.9,55.7c2.1-0.4,1.8,3.6-0.5,2.7C16.5,57.4,17.4,56.4,17.9,55.7z"/>
		
			<path style="clip-path:url(#SVGID_00000105398073070427225880000008766320100853702839_);fill-rule:evenodd;clip-rule:evenodd;fill:#00C6BC;" d="
			M73.9,71.5c-0.6,0.2-0.7,0.8-1.4,0.9c-1.3-0.1-1.9-0.8-1.8-2.3C72,68.9,73.8,69.3,73.9,71.5z"/>
		
			<path style="clip-path:url(#SVGID_00000105398073070427225880000008766320100853702839_);fill-rule:evenodd;clip-rule:evenodd;fill:#00C6BC;" d="
			M63.5,77.8C61,70.6,70.2,76.3,63.5,77.8L63.5,77.8z"/>
		
			<path style="clip-path:url(#SVGID_00000105398073070427225880000008766320100853702839_);fill-rule:evenodd;clip-rule:evenodd;fill:#00C6BC;" d="
			M59.9,77.8c-1.2,0.9-1.9,0.9-3.2,0C55.9,74.3,60.7,74.3,59.9,77.8z"/>
		
			<path style="clip-path:url(#SVGID_00000105398073070427225880000008766320100853702839_);fill-rule:evenodd;clip-rule:evenodd;fill:#00C6BC;" d="
			M153.7,26.8c11.4,2,23.7,5.4,30.2,10.8c-9.4,4-19.5,7.3-30.2,9.9c1.5-2.5,1.2-4.4,0.9-8.1c-20.9,1.1-42.8,1-62.7-0.4
			c2-1.9,6.3-1.5,9.9-1.8c-0.6-1.1-3.5,0.2-3.2-1.8c16-2.4,37.7-1.4,55-0.9C154.9,32.1,152.1,28.4,153.7,26.8z"/>
		
			<path style="clip-path:url(#SVGID_00000105398073070427225880000008766320100853702839_);fill-rule:evenodd;clip-rule:evenodd;fill:#00C6BC;" d="
			M64.8,62.9c2.5-1.3,4.1-3.4,5.9-5.4c4.3-18.4-6.3-29-22.5-29.8c2.7-2.4,8.4-2.4,12.2-1.4c4.4,4.4,12.6,8.1,14,16.2
			c1.2,7.6-0.7,14.3-3.2,20.3c10.7-2.7,6.7-26.3,3.2-35.2c9.5,11.8,7.7,34.6-4.5,41c-3.5,1.8-8.6,4.3-11.7,5
			c-12.1,2.7-23.1-0.6-28.9-9.5c0,2.5,6.1,5.3,6.3,7.7c-11.3-2.8-14-14.3-13.5-27.1c0.5-12.7,11.2-21.2,20.7-23.9
			c-0.9,3-4.6,3.7-6.8,5.4c-5.5,4.2-10.4,9.6-10.8,18.9c4.2-8.6,8.8-19.2,20.3-18.9c-8.7,3.9-13.9,8.4-15.8,19.8
			c-0.3,1.8-1.4,4.5-1.4,5.9c0.2,7.7,8.6,16.3,15.8,17.6c6.9,1.3,12.4-0.1,17.6-3.6c-6.9,2.3-17.7,3.3-23.9-0.9
			c-11.7-8-5.1-29.7,5.4-34.3c16-2.2,25.3,4.7,25.3,19.8c-0.2,1.8,1.6-0.5,1.4,1.8c-0.9,5.5-5.6,7-9.5,9.5
			C61.5,62.9,66,59.7,64.8,62.9z M38.7,40.8c1.1,0.4,2.5-2.9,4.5-4.1c3.5-2.1,8.5-1.9,13.1-2.7C49,31.6,41.3,35.6,38.7,40.8z
			 M65.3,49.4c0.1-6.3-7.7-12.4-15.8-9.5c-0.4,0.1-0.5,0.4-0.5,0.9C56.8,39,63.6,42.5,61.7,53c-2.3,3.9-9.5,5-14.9,3.2
			c-3.4-2.5-1-10.4-1.8-12.2c-2.7-0.8-3.9,3.7-4.1,5.4c-0.4,7,7.1,11.9,15.3,10.8C58.3,56.6,65.2,55.4,65.3,49.4z M51.3,49.8
			c2.3-0.4,3.1-2.3,5-3.2C53.6,44.9,48.2,47.1,51.3,49.8z M37.8,57.9c3.2,3.7,8.4,7.8,15.8,5.9c-8.1-0.5-12.6-4.5-15.8-9.9
			C37.8,55.2,37.8,56.6,37.8,57.9z"/>
	</g>
	<path class="st0" d="M69.1,95.7c-1.2-13.7-5.1-28.5-9-41c-1.2,0.6,0.2,3.8-0.9,4.5c-7.3-0.2-12.8,3.7-18,4.1
		c-1.3-1.3,1.2-1.1,1.4-2.3c-1.1-2.3-2.9-4-4.1-6.3c-0.3,22,3.6,43.3,6.3,64.5c2.1,16.4,6,31.3,7.2,48.7c0.7,10.3,5.6,20.3,6.3,30.7
		c0.9,13.7,0.3,27.5,1.4,42.4c1.1,15.6,6.5,28.6,10.8,41.9c-26.6-21-2.4-92.9-33.8-109.1c1.8,6.8,3.3,17.8,5.4,25.7
		c-0.5,2-2.3-1.7-2.7-2.7c-1.3,1.3-3.1,2-4.1,3.6c1.2,7,0.9,15.3,0.9,23.4c3.8-1.5,13.1-2.5,16.7,0c-5.4,1.9-15.4-1-16.2,5.4
		c2.1,0.1,5.7-2.2,8.1-3.2c1.4,3.2-8.6,4.8-8.1,8.6c4,1.6,8.9-3.4,13.5-4.1c-2.6,4-7.3,6-11.3,8.6c10,30.4,15.1,62,32.9,83.4
		c8.7,10.4,19.7,18.9,28.9,29.3c9.5,10.7,12.6,24.9,18,39.7c-4.7-1.1-6.3-6.4-8.1-9.9c-6.1-12-12.8-24-21.2-34.3
		c-3.4-4.2-8.2-7-11.7-10.8c-10.2-11.1-20.9-23.8-27.1-39.7c-1.9-4.8-2.9-10.8-4.5-16.7c-2.9-10.4-5.6-21.6-9-32.5
		c-1.6-5.1-4.7-10.1-5.4-15.3c-1.5-10.7,1.2-22.4-0.5-33.8c-0.5-3.1-2.2-6.7-3.2-10.4c-0.8-3-2.9-7.3-2.7-10.4
		c0.5-11,18.3-8.7,22.5-1.8c-3.2-22.6-7.3-57.3-10.8-83.4c-1.8-13.5-5.8-23.9-4.5-39.2c0.7-7.9,5.1-18.3,13.5-18.9
		c7.2-0.5,12.3,1.9,13.1,8.1c7.8,15.8,10.5,34.3,14,53.2c3.4,18.1,10.2,36.2,11.7,55c2-2.7,4.1-5.2,6.8-7.2c3.8,2,7.9,0.2,11.7,0.5
		c6.2,0.5,8.9,4.9,11.3,9.9c3.5,2,6.2-1.2,9.5-1.4c1.8-0.1,4.2,1.6,7.2,2.3c3.9,0.8,7.3,1.5,9.5,3.6c2.6,2.5,3.2,6.3,5.4,8.6
		c8.5-6.1,22-2.2,27.5,4.5c4.8,5.8,8.2,14.2,13.1,21.2c4.8,7,10.8,13.1,15.8,18.5c1.6,1.8,3,8.2,4.1,11.7c2.3,7.5,3.8,13.4,3.2,23.9
		c-1.8,29.3-15.2,62.2-13.1,91.1c0.6,9,5.4,17.1,5.4,26.2c-2.9-2.5-2.9-7.9-6.3-9.9c-2.2-9.8-6.3-19.9-5-33.4
		c1-10,6.2-21.7,8.6-34.7c2.2-12.3,4.7-25.7,5.4-37.9c0.5-8.7,0.5-22.7-3.2-30.7c-2.4-5.3-7.4-7.8-11.7-12.6
		c4.1,6.8,13.2,14.3,10.4,25.7c-1.3,5.2-4.7,10.7-6.8,15.3c-0.3-7.6,4.2-11.1,5-16.7c2.2-17-16.5-26-19.8-39.2
		c0.4-1.9,0.6-0.7,0-1.4c-1.2-1.4-2.9-6.9-4.5-9.5c-2.3-3.7-5.7-7.1-7.7-9c-7-0.9-10.6,1.7-15.3,3.2c3-2.7,6.3-5.1,12.2-5
		c-5.4-2.7-11.6,0.8-14.9,3.2c3.4,8.9,9.7,17.4,15.3,25.3c3.4,4.8,10.7,10.4,11.7,17.6c1.3,8.9-3.4,18.4-2.3,29.8
		c-4.4-12.9,3.5-28.3-3.6-37.4c-1.3-1.6-3.3-1.9-5-3.2c-1.8-1.5-4.1-4.1-5.4-5.9c-8.4-11.8-15.2-26.3-24.4-38.3
		c-6-0.9-9.6,2.5-14,1.8c1.7-2.5,6.7-1.7,8.6-4.1c-4.4-1.4-8.3,1.6-12.6,1.8c3.6,15.2,12.9,24.6,17.1,39.2c-2.3,0.1-2.9-2.1-5-0.9
		c-8.4-12.2-13.9-27.3-18.9-42.8c-3.4,0.3-8.5-1.2-13.1-0.5c-2.8,0.4-4.8,2.9-6.8,1.8c2.7-5.8,11.7-5.2,18.5-3.6
		c-0.4-3.8-4.6-1.5-7.7-1.8c-2.7-0.2-5.5-2.2-7.7-1.8c-9.2,1.5-7.1,20.8-3.6,28.9c1.2,2.7,3.8,4.2,4.1,6.3c-1.1,0.1-1.4-0.7-2.3-0.9
		c1.2,2.8,5.3,2.8,5,7.2c-7.4-0.6-9.6-8.4-11.7-16.2c-3.8-13.9-5.2-33.7-8.1-47.4c-0.3,8.2,1.8,17.7,3.2,27.1
		c1.4,9.2,3,18.6,4.5,27.1c-5.7-14.9-7-34.2-9.9-51.9c-5.3,3.3-14.8,4.9-21.2,1.4c8.1-2.4,20.4-0.6,21.6-9.9
		c-7.6-0.6-16.8-1.5-22.5,0.9c4.8-5.6,12.3-3,21.2-4.1c-1.9-5.5-11-4.5-16.2-3.2c-3.1,0.8-4.8,3-7.7,2.7c-0.7-1.8,2.6-2.9,5-4.1
		c4.2-2.1,9.2-3.4,16.7-2.7C68.5,99,65.8,88,63.3,76.8c-6.7,0.1-13.4,2.5-18.9,2.3c2.6-4.9,11.6-4.9,18-4.5c0.6-0.9-0.5-4-0.9-5.4
		c-0.1-0.8,0.4-0.9,0.5-0.5c1.6,1.7,1.2,5.4,3.2,6.8C65.3,81.7,67.3,89.7,69.1,95.7z M45.7,38.9c-6.9,2.6-4.9,13.2-0.9,18.5
		c1-4.9,9.6-5.1,12.6-1.8C58.9,44.5,54.9,35.5,45.7,38.9z M47.5,57.9c2.5-1,6.4-0.5,9-1.4C53.9,54.7,48.4,54.5,47.5,57.9z
		 M33.5,193.6c0.9-0.8,1.8-1.5,3.6-1.4c-0.4-6.4-2.1-11.5-3.6-16.7C24.4,176.5,32.9,188.6,33.5,193.6z"/>
</g>
<g>
</g>
<g>
</g>
<g>
</g>
<g>
</g>
<g>
</g>
<g>
</g>
<g>
</g>
<g>
</g>
<g>
</g>
<g>
</g>
<g>
</g>
</svg>
